<?xml version="1.0" standalone="no"?>
<!DOCTYPE svg PUBLIC "-//W3C//DTD SVG 20010904//EN"
 "http://www.w3.org/TR/2001/REC-SVG-20010904/DTD/svg10.dtd">
<svg version="1.0" xmlns="http://www.w3.org/2000/svg"
 width="512.000000pt" height="512.000000pt" viewBox="0 0 512.000000 512.000000"
 preserveAspectRatio="xMidYMid meet">
<metadata>
Created by potrace 1.14, written by Peter Selinger 2001-2017
</metadata>
<g transform="translate(0.000000,512.000000) scale(0.100000,-0.100000)"
fill="#000000" stroke="none">
<path d="M256 4566 c-54 -12 -129 -87 -143 -143 -7 -28 -10 -504 -9 -1480 1
-1598 -5 -1461 67 -1531 64 -62 63 -62 800 -62 l668 0 3 -211 c2 -116 1 -215
-2 -219 -3 -5 -37 -10 -75 -11 -88 -3 -117 -13 -159 -54 -85 -82 -70 -216 33
-285 l36 -25 1080 0 1080 0 40 23 c119 68 126 235 13 309 -33 22 -54 27 -123
31 l-84 4 -3 209 c-2 115 -1 214 0 219 2 7 239 10 671 10 737 0 739 0 799 61
17 18 39 48 49 68 17 34 18 112 19 1466 1 926 -2 1445 -8 1472 -12 51 -68 118
-117 140 -33 15 -220 17 -2316 18 -1386 0 -2295 -3 -2319 -9z"/>
</g>
</svg>
